<?xml version="1.0" encoding="UTF-8" standalone="no"?><!DOCTYPE svg PUBLIC "-//W3C//DTD SVG 1.1//EN" "http://www.w3.org/Graphics/SVG/1.1/DTD/svg11.dtd"><svg width="100%" height="100%" viewBox="0 0 1500 1500" version="1.1" xmlns="http://www.w3.org/2000/svg" xmlns:xlink="http://www.w3.org/1999/xlink" xml:space="preserve" xmlns:serif="http://www.serif.com/" style="fill-rule:evenodd;clip-rule:evenodd;stroke-linecap:round;stroke-linejoin:round;stroke-miterlimit:1.5;"><rect id="Logo" x="0" y="0" width="1500" height="1500" style="fill:none;"/><g><g><path id="Rocket" d="M370.534,592.917l584.046,581.168c-0,0 626.841,-849.095 434.437,-1041.5c-192.404,-192.404 -1018.48,460.331 -1018.48,460.331Z" style="fill:#30b5ff;stroke:#000;stroke-width:4.17px;"/><path d="M358.782,600.605c-0,0 -367.029,594.335 -267.324,530.324c87.261,-56.021 373.698,-363.935 253.183,-106.451c-101.903,217.717 -331.734,396.035 -181.256,376.896c160.787,-20.45 367.462,-307.858 466.086,-333.74c79.731,-20.925 82.764,3.983 -0,181.255c-113.032,242.099 317.323,-60.467 317.323,-60.467l-588.012,-587.817Z" style="fill:#ff3c30;stroke:#000;stroke-width:4.17px;"/></g><path d="M1179.73,642.764c-0,-75.793 -378.964,-265.275 -454.757,-227.379c-75.793,37.897 -75.793,416.861 -0,454.757c75.793,37.897 454.757,-151.585 454.757,-227.378Z" style="fill:#fff;stroke:#000;stroke-width:4.17px;"/><path d="M1321.87,386.23c-0,-37.835 -189.175,-132.423 -227.01,-113.505c-37.835,18.917 -37.835,208.092 -0,227.01c37.835,18.917 227.01,-75.67 227.01,-113.505Z" style="fill:#fff;stroke:#000;stroke-width:4.17px;"/></g></svg>